<?xml version="1.0" encoding="utf-8"?>
<!-- Uploaded to: SVG Repo, www.svgrepo.com, Generator: SVG Repo Mixer Tools -->
<svg width="30px" height="30px" viewBox="0 0 1000 1000" class="icon"  version="1.1" xmlns="http://www.w3.org/2000/svg"><path d="M736 693.333333m-32 0a32 32 0 1 0 64 0 32 32 0 1 0-64 0Z" fill="#455A64" /><path d="M736 693.333333l42.666667-85.333333" fill="none" /><path d="M654.869333 533.333333s-95.466667-253.461333-128-281.066666S448 213.333333 448 213.333333l35.328 258.368L654.869333 533.333333z" fill="#7986CB" /><path d="M170.666667 128.042667v234.666666l150.506666-3.050666L236.906667 149.333333z" fill="#3F51B5" /><path d="M85.333333 810.666667h853.333334v85.333333H85.333333z" fill="#546E7A" /><path d="M272.874667 337.685333l487.829333 155.434667c121.962667 38.890667 184.810667 145.962667 177.770667 168.042667-6.464 20.288-52.010667 28.757333-182.464-12.8-130.410667-41.578667-406.528-129.493333-406.528-129.493334s-182.912-58.304-266.026667-219.114666c123.946667 20.821333 189.418667 37.930667 189.418667 37.930666z" fill="#9FA8DA" /><path d="M628.416 588.778667C607.082667 610.090667 384 725.333333 341.333333 725.333333s-85.333333-21.333333-85.333333-21.333333 180.416-157.866667 201.749333-179.221333 192 42.688 170.666667 64z" fill="#9FA8DA" /><path d="M872.042667 601.834667l51.84 16.789333c-9.344-15.445333-23.146667-33.173333-40.832-50.709333l-11.008 33.92zM824.277333 541.525333L864.853333 554.666667l-13.162666 40.618666-40.618667-13.184z" fill="#283593" /><path d="M425.578667 457.109333m-21.333334 0a21.333333 21.333333 0 1 0 42.666667 0 21.333333 21.333333 0 1 0-42.666667 0Z" fill="#283593" /><path d="M506.752 483.434667m-21.333333 0a21.333333 21.333333 0 1 0 42.666666 0 21.333333 21.333333 0 1 0-42.666666 0Z" fill="#283593" /><path d="M608.213333 516.288c-3.626667 11.242667-15.658667 17.365333-26.858666 13.781333a21.418667 21.418667 0 0 1-13.738667-26.922666 21.397333 21.397333 0 0 1 26.88-13.738667c11.221333 3.712 17.365333 15.722667 13.717333 26.88z" fill="#283593" /><path d="M669.098667 536.064m-21.333334 0a21.333333 21.333333 0 1 0 42.666667 0 21.333333 21.333333 0 1 0-42.666667 0Z" fill="#283593" /></svg>